{"title":"Battle : Los Angeles 2011","uid":6376121,"size":751661056,"categoryP":"video","categoryS":"movies","magnet":"?xt=urn:btih:21b814caf952d1e5f3d36598a105a813d531c301&amp;dn=Battle+%3A+Los+Angeles+2011&amp;tr=udp%3A%2F%2Ftracker.openbittorrent.com%3A80&amp;tr=udp%3A%2F%2Fopen.demonii.com%3A1337&amp;tr=udp%3A%2F%2Ftracker.coppersurfer.tk%3A6969&amp;tr=udp%3A%2F%2Fexodus.desync.com%3A6969","seeders":0,"leechers":0,"uploader":"muhameti123x","files":1,"time":1304863724,"description":"\n\nFormat : AVI\nFormat/Info : Audio Video Interleave\nFile size : 822 MiB\nDuration : 1h 50mn\nOverall bit rate : 1 039 Kbps\n\nVideo\nCodec ID/Hint : XviD\nDuration : 1h 50mn\nBit rate : 902 Kbps\nWidth : 720 pixels\nHeight : 336 pixels\nDisplay aspect ratio : 2.2:1\nFrame rate : 25.000 fps\nColor space : YUV\nChroma subsampling : 4:2:0\nBit depth : 8 bits\nScan type : Progressive\nBits/(Pixel*Frame) : 0.149\nStream size : 713 MiB (87%)\nWriting library : XviD 1.2.1\n\nAudio\nID : 1\nFormat : MPEG Audio\nFormat version : Version 1\nFormat profile : Layer 3\nCodec ID : 55\nCodec ID/Hint : MP3\nDuration : 1h 50mn\nBit rate mode : Constant\nBit rate : 128 Kbps\nChannel(s) : 2 channels\nSampling rate : 44.1 KHz\nStream size : 101 MiB (12%)\nAlignment : Split accross interleaves\nInterleave, duration : 40 ms (1.00 video frame)\nInterleave, preload duration : 500 ms\n","torrent":{"xt":"urn:btih:21b814caf952d1e5f3d36598a105a813d531c301","amp;dn":"Battle+%3A+Los+Angeles+2011","amp;tr":["udp%3A%2F%2Ftracker.openbittorrent.com%3A80","udp%3A%2F%2Fopen.demonii.com%3A1337","udp%3A%2F%2Ftracker.coppersurfer.tk%3A6969","udp%3A%2F%2Fexodus.desync.com%3A6969"],"infoHash":"21b814caf952d1e5f3d36598a105a813d531c301","infoHashBuffer":{"type":"Buffer","data":[33,184,20,202,249,82,209,229,243,211,101,152,161,5,168,19,213,49,195,1]},"announce":[],"urlList":[]}}